# xmcd
# 
# Track frame offsets:
#     150
#     18208
#     32136
#     47791
#     66328
#     84982
#     100093
#     119325
#     134355
#     148558
#     163983
#     177527
#     197792
# 
# Disc length: 2864
# 
# Revision: 5
# Processed by: cddbd v1.5.2PL0 Copyright (c) Steve Scherf et al.
# Submitted via: BonkEnc v1.0.15
# 
DISCID=b80b2e0d
DTITLE=Hey - Echosystem
DYEAR=2005
DGENRE=Rock
TTITLE0=To tu
TTITLE1=Luli Lali
TTITLE2=Leze tu, lezec chce
TTITLE3=Bylabym
TTITLE4=W imieniu dam
TTITLE5=A Ty?
TTITLE6=Mimo wszystko
TTITLE7=Cala noc
TTITLE8=SOS
TTITLE9=Mowie
TTITLE10=Ty, Ty, Ty
TTITLE11=Na wiecznosc
TTITLE12=Nie wierze (Jackowi Cz.)
EXTD=
EXTT0=
EXTT1=
EXTT2=
EXTT3=
EXTT4=
EXTT5=
EXTT6=
EXTT7=
EXTT8=
EXTT9=
EXTT10=
EXTT11=
EXTT12=
PLAYORDER=
